<?xml version="1.0" encoding="iso-8859-1"?>
<!-- Generator: Adobe Illustrator 18.1.1, SVG Export Plug-In . SVG Version: 6.00 Build 0)  -->
<svg version="1.1" id="Capa_1" xmlns="http://www.w3.org/2000/svg" xmlns:xlink="http://www.w3.org/1999/xlink" x="0px" y="0px"
	 viewBox="0 0 612.004 612.004" style="enable-background:new 0 0 612.004 612.004;" xml:space="preserve">
<g>
	<g>
		<path d="M478.424,549.675c-4.579-11.171-13.234-19.887-24.365-24.539L423,512.135l31.062-13.003
			c22.979-9.621,33.848-36.142,24.228-59.121c-7.056-16.853-23.419-27.742-41.689-27.742c-6,0-11.864,1.183-17.433,3.512
			l-113.174,47.377l-113.171-47.386c-11.127-4.657-23.406-4.7-34.574-0.118c-11.166,4.581-19.88,13.231-24.532,24.35
			c-9.634,22.967,1.228,49.495,24.218,59.137l31.053,13l-31.049,12.998c-11.131,4.66-19.783,13.375-24.358,24.542
			c-4.577,11.166-4.53,23.446,0.13,34.579c7.054,16.851,23.417,27.74,41.689,27.742l0,0c6,0,11.864-1.183,17.433-3.512
			l113.164-47.372l113.192,47.379c5.583,2.326,11.44,3.507,17.409,3.507c18.273,0,34.642-10.886,41.703-27.742
			C482.954,573.122,482.997,560.841,478.424,549.675z M167.336,476.712c-10.617-4.452-15.637-16.701-11.186-27.313
			c2.149-5.136,6.173-9.13,11.329-11.246c5.157-2.116,10.825-2.098,15.958,0.05l91.074,38.135l-54.03,22.618L167.336,476.712z
			 M183.442,586.056c-2.578,1.08-5.284,1.628-8.039,1.628l0,0c-8.44,0-15.998-5.03-19.257-12.814
			c-2.152-5.14-2.173-10.811-0.061-15.967c2.112-5.155,6.107-9.18,11.247-11.331l261.23-109.356c2.578-1.08,5.284-1.628,8.041-1.628
			c8.438,0,15.998,5.03,19.257,12.814c4.442,10.61-0.577,22.858-11.186,27.299L183.442,586.056z M455.867,574.871
			c-3.259,7.782-10.823,12.811-19.269,12.811c-2.741,0-5.451-0.551-8.037-1.628l-91.074-38.121l54.027-22.616l53.162,22.255
			C455.285,552.005,460.303,564.256,455.867,574.871z" fill="#fff"/>
		<path d="M186.423,373.018c23.13,19.687,55.222,32.809,90.364,36.947l0,0c11.023,1.298,17.879-11.638,10.617-20.031l0,0
			c-8.779-10.146-37.004-46.394-31.63-86.844c2.807-21.129,14.565-40.624,35.024-58.144c6.371,27.299,21.292,44.954,33.757,59.705
			c12.677,15.003,22.691,26.851,22.691,45.081c0,15.432-2.625,28.032-7.803,37.45l0,0c-5.142,9.354,3.403,20.322,13.731,17.62l0,0
			c29.443-7.697,55.149-21.85,74.34-40.926c21.81-21.678,34.767-48.677,38.512-80.245c8.19-69.035-20.94-138.497-84.242-200.875
			c-46.995-46.309-95.693-72.259-97.744-73.341L266.203,0v20.165c0,90.598-33.752,122.181-66.393,152.725
			c-27.784,26-56.514,52.884-55.165,112.283C145.439,320.054,159.884,350.43,186.423,373.018z M216.426,190.647
			c30.624-28.656,68.194-63.811,73.468-149.496c45.847,29.024,166.444,117.71,151.98,239.613
			c-5.034,42.43-31.013,75.354-72.399,92.908c1.388-7.372,2.086-15.366,2.086-23.941c0-27.129-14.456-44.233-28.435-60.777
			c-15.135-17.91-29.432-34.827-31.009-66.787l-1.063-21.539l-17.879,12.058c-36.387,24.541-57.082,53.879-61.508,87.201
			c-4.155,31.265,7.136,59.79,18.822,79.855c-41.386-12.545-80.329-42.293-81.531-95.12
			C167.856,236.099,189.29,216.041,216.426,190.647z" fill="#fff"/>
	</g>
</g>
<g>
</g>
<g>
</g>
<g>
</g>
<g>
</g>
<g>
</g>
<g>
</g>
<g>
</g>
<g>
</g>
<g>
</g>
<g>
</g>
<g>
</g>
<g>
</g>
<g>
</g>
<g>
</g>
<g>
</g>
</svg>
